<svg width="56" height="56" viewBox="0 0 80 80" fill="none" xmlns="http://www.w3.org/2000/svg">
<circle cx="40" cy="40" r="39" fill="#FBFBFA" stroke="#FF6D08" stroke-width="2"/>
<g clip-path="url(#clip0_217_1174)">
<path fill-rule="evenodd" clip-rule="evenodd" d="M34.1179 63.1315H37.6778C37.8736 63.1315 38.0338 63.2888 38.0338 63.4811C38.0338 63.6733 37.8736 63.8307 37.6778 63.8307H34.1179C33.9221 63.8307 33.7619 63.6733 33.7619 63.4811C33.7619 63.2888 33.9221 63.1315 34.1179 63.1315ZM35.0078 61.9081H37.6778C37.8736 61.9081 38.0338 62.0654 38.0338 62.2576C38.0338 62.4499 37.8736 62.6072 37.6778 62.6072H35.0078C34.812 62.6072 34.6518 62.4499 34.6518 62.2576C34.6518 62.0654 34.812 61.9081 35.0078 61.9081ZM41.1453 29.5775C41.2948 29.7243 41.4158 29.8991 41.4941 30.0913C41.576 30.2801 41.6187 30.4828 41.6187 30.6856V33.5065C41.6187 33.6988 41.4585 33.8561 41.2627 33.8561H38.7458C38.55 33.8561 38.3898 33.6988 38.3898 33.5065V30.6856C38.3898 30.4828 38.4326 30.2801 38.5144 30.0913C38.5928 29.8991 38.7138 29.7243 38.8633 29.5775C39.0128 29.4307 39.1908 29.3153 39.3866 29.2349C39.5824 29.1545 39.7889 29.1126 40.0025 29.1126C40.2161 29.1126 40.4262 29.1545 40.622 29.2349C40.8178 29.3153 40.9957 29.4307 41.1453 29.5775ZM39.1018 33.1569H40.9067V30.6926C40.9067 30.5772 40.8818 30.4653 40.8391 30.3605C40.7928 30.2521 40.7252 30.1542 40.6433 30.0738C40.5579 29.9899 40.4582 29.9235 40.3514 29.8816C40.241 29.8361 40.12 29.8117 40.0025 29.8117C39.885 29.8117 39.7676 29.8361 39.6572 29.8816C39.5504 29.9235 39.4507 29.9899 39.3653 30.0738C39.2834 30.1542 39.2158 30.2521 39.1695 30.3605C39.1268 30.4653 39.1018 30.5772 39.1018 30.6926V33.1569ZM41.1453 57.2415C41.2948 57.3883 41.4158 57.5631 41.4941 57.7553C41.576 57.9441 41.6152 58.1433 41.6187 58.3496V61.1705C41.6187 61.3628 41.4585 61.5201 41.2627 61.5201H38.7458C38.55 61.5201 38.3898 61.3628 38.3898 61.1705V58.3496C38.3898 58.1433 38.4326 57.9441 38.5144 57.7553C38.5928 57.5631 38.7138 57.3883 38.8633 57.2415C39.0128 57.0947 39.1908 56.9758 39.3866 56.8989C39.5824 56.8185 39.7889 56.7766 40.0025 56.7766C40.2161 56.7766 40.4262 56.8185 40.622 56.8989C40.8178 56.9758 40.9957 57.0947 41.1453 57.2415ZM39.1018 60.821H40.9067V58.3531C40.9067 58.2412 40.8818 58.1294 40.8391 58.021C40.7928 57.9161 40.7252 57.8183 40.6433 57.7344C40.5579 57.654 40.4582 57.5875 40.3514 57.5421C40.241 57.5002 40.12 57.4757 40.0025 57.4757C39.885 57.4757 39.7676 57.5002 39.6572 57.5421C39.5504 57.5875 39.4507 57.654 39.3653 57.7344C39.2834 57.8183 39.2158 57.9161 39.1695 58.021C39.1268 58.1294 39.1018 58.2412 39.1018 58.3531V60.821ZM48.0552 10.586H48.1798C48.8669 10.586 49.4258 11.1313 49.4258 11.8094C49.4258 12.4876 48.8669 13.0329 48.1798 13.0329H45.5098V21.4223C46.4924 21.4223 47.2898 22.2053 47.2898 23.1701C47.2898 23.9845 46.7238 24.6662 45.9584 24.8619C45.816 24.9004 45.6665 24.9179 45.5098 24.9179H45.3959L45.4707 25.617L46.7028 37.4917L58.1937 37.4941C59.8372 37.4942 60.9634 39.1334 60.436 40.683L57.1037 50.4465C56.7741 51.4092 55.8772 52.0654 54.8616 52.0654L48.2095 52.064L49.6287 65.7462L49.6358 65.8161H51.5618C52.5444 65.8161 53.3418 66.5956 53.3418 67.5639C53.3418 68.5322 52.5444 69.3117 51.5618 69.3117H26.9979C26.0153 69.3117 25.2179 68.5287 25.2179 67.5639C25.2179 66.5991 26.0153 65.8161 26.9979 65.8161H28.9665L28.9772 65.7253L30.8201 52.0603L21.8071 52.0584C20.1635 52.0584 19.0374 50.4191 19.5648 48.8695L22.8972 39.1058C23.2268 38.143 24.1236 37.4871 25.1392 37.4871L32.7837 37.4887L34.481 24.8864C33.6657 24.7291 33.0499 24.0195 33.0499 23.1701C33.0499 22.7471 33.2029 22.3626 33.4557 22.0585C33.712 21.7579 34.068 21.5376 34.4739 21.4572V13.0329H32.1599C31.4728 13.0329 30.9139 12.4841 30.9139 11.8094C30.9139 11.1348 31.4728 10.586 32.1599 10.586H32.4233L33.4272 9.98824L34.367 9.43245L39.5824 6.25846H39.586C39.8032 6.12563 40.0773 6.11864 40.3016 6.24098L46.1862 9.42196L46.2076 9.43245L46.2254 9.44293L47.1118 9.99873L48.0552 10.586ZM33.5028 37.4889L35.1894 24.9773L35.1965 24.9179H44.6803L44.6875 24.9913L45.9847 37.4915L33.5028 37.4889ZM31.5392 52.0605L47.4944 52.0638L47.628 53.3439H41.9498C41.754 53.3439 41.5938 53.5012 41.5938 53.6935C41.5938 53.8857 41.754 54.043 41.9498 54.043H47.6458C47.6458 54.043 47.6814 54.043 47.6992 54.0395L47.7918 54.9169H44.4418C44.246 54.9169 44.0858 55.0742 44.0858 55.2665C44.0858 55.4587 44.246 55.616 44.4418 55.616H47.863L48.8491 65.117L48.9203 65.8161H29.6857L29.7782 65.117L31.5392 52.0605ZM34.7373 10.0302H34.7337L33.7975 10.586H46.7309L45.8445 10.0337L45.5739 9.88687L39.9598 6.85271L34.9651 9.88687L34.7408 10.0267L34.7373 10.0302ZM45.5098 24.2187C46.1008 24.2187 46.5778 23.7503 46.5778 23.1701C46.5778 22.5933 46.1008 22.1214 45.5098 22.1214H34.7195L34.6162 22.1424C34.1285 22.2402 33.7619 22.6597 33.7619 23.1701C33.7619 23.6804 34.1321 24.1069 34.6198 24.2013L34.723 24.2187H45.5098ZM35.1858 13.0329V21.4223H38.0338V13.0329H35.1858ZM41.2378 17.1647C41.2378 16.49 40.6789 15.9412 39.9918 15.9412C39.3048 15.9412 38.7458 16.49 38.7458 17.1647C38.7458 17.8393 39.3048 18.3881 39.9918 18.3881C40.6789 18.3881 41.2378 17.8393 41.2378 17.1647ZM38.7458 13.0329V15.6825C39.084 15.4064 39.5184 15.2421 39.9918 15.2421C40.4653 15.2421 40.8996 15.4064 41.2378 15.6825V13.0329H38.7458ZM41.2378 18.6468C40.8996 18.9229 40.4653 19.0872 39.9918 19.0872C39.5184 19.0872 39.084 18.9229 38.7458 18.6468V21.4223H41.2378V18.6468ZM41.9498 13.0329V21.4223H44.7978V13.0329H41.9498ZM32.1599 12.3338H48.1798C48.4753 12.3338 48.7138 12.0961 48.7138 11.8094C48.7138 11.5228 48.4753 11.2851 48.1798 11.2851H32.1599C31.8644 11.2851 31.6259 11.5193 31.6259 11.8094C31.6259 12.0996 31.8644 12.3338 32.1599 12.3338ZM26.9979 68.6126H51.5618C52.1528 68.6126 52.6298 68.1407 52.6298 67.5639C52.6298 66.9872 52.1528 66.5153 51.5618 66.5153H26.9979C26.4069 66.5153 25.9299 66.9837 25.9299 67.5639C25.9299 68.1442 26.4069 68.6126 26.9979 68.6126ZM20.2544 49.1004L23.5863 39.3378C23.8192 38.6577 24.4461 38.209 25.1392 38.2089L58.1937 38.2159C59.3127 38.2159 60.1232 39.3451 59.7464 40.4522L56.4145 50.2147C56.1816 50.8948 55.5547 51.3436 54.8616 51.3436L21.8071 51.3366C20.6881 51.3366 19.8777 50.2074 20.2544 49.1004ZM26.5634 40.4718C26.5634 40.4378 26.5915 40.4103 26.6261 40.4103C26.6276 40.4103 26.629 40.4103 26.6305 40.4104C26.6288 40.4103 26.627 40.4102 26.6252 40.4102C26.5906 40.4102 26.5626 40.4378 26.5626 40.4717V43.766C26.5626 44.0511 26.5747 44.3161 26.5989 44.5612L26.599 44.562L26.6002 44.5738C26.6326 44.805 26.6847 45.0313 26.7564 45.2527L26.7568 45.2539L26.7631 45.273L27.5902 47.7587C27.6791 48.025 27.7778 48.2507 27.8864 48.4356L27.89 48.4416C27.9027 48.4631 27.9155 48.484 27.9285 48.5044C28.0446 48.6867 28.2181 48.7846 28.4489 48.798C28.2185 48.7844 28.0453 48.6866 27.9294 48.5045C27.8041 48.3077 27.6913 48.0591 27.591 47.7588L26.764 45.273C26.6888 45.0452 26.6345 44.8121 26.601 44.5739C26.576 44.3253 26.5634 44.056 26.5634 43.766V40.4718ZM31.4928 40.4104C31.491 40.4103 31.4893 40.4102 31.4875 40.4102C31.4529 40.4102 31.4249 40.4378 31.4249 40.4717V43.766C31.4249 44.0353 31.4081 44.2942 31.3747 44.5428L31.3727 44.557L31.3722 44.5606C31.3388 44.7921 31.2895 45.0089 31.2243 45.2108L30.3973 47.6966L30.3913 47.7156C30.3092 47.9766 30.215 48.1982 30.109 48.3801C30.098 48.3995 30.0862 48.4178 30.0735 48.4351C29.9712 48.5745 29.8159 48.6443 29.6078 48.6443H28.505C28.4871 48.6443 28.4697 48.6437 28.4525 48.6427C28.4699 48.6438 28.4877 48.6443 28.5059 48.6443H29.6086C29.8426 48.6443 30.0097 48.5563 30.1099 48.3802C30.2185 48.1938 30.3146 47.9659 30.3981 47.6966L31.2252 45.2109C31.2921 45.0037 31.3422 44.781 31.3756 44.5428C31.409 44.2943 31.4257 44.0353 31.4257 43.766V40.4718C31.4257 40.4378 31.4538 40.4103 31.4884 40.4103C31.4899 40.4103 31.4913 40.4103 31.4928 40.4104ZM38.5437 48.6444C38.5419 48.6443 38.54 48.6443 38.5382 48.6443H37.0559C37.0493 48.6443 37.0426 48.6441 37.036 48.6437C37.0429 48.6441 37.0498 48.6443 37.0568 48.6443H38.539C38.5406 48.6443 38.5422 48.6444 38.5437 48.6444ZM38.5437 40.4104C38.5421 40.4103 38.5406 40.4103 38.539 40.4103H34.7122C34.6685 40.4103 34.6331 40.4451 34.6331 40.488C34.6331 40.529 34.6656 40.5627 34.7067 40.5655C34.6651 40.5631 34.6322 40.5293 34.6322 40.4879C34.6322 40.445 34.6676 40.4102 34.7113 40.4102H38.5382C38.54 40.4102 38.5419 40.4103 38.5437 40.4104ZM34.7067 48.7995C34.6651 48.7971 34.6322 48.7633 34.6322 48.7219C34.6322 48.679 34.6676 48.6443 34.7113 48.6443H36.2186C36.3142 48.6443 36.4011 48.6072 36.465 48.547C36.4737 48.5388 36.482 48.5302 36.4898 48.5212C36.5427 48.4602 36.5746 48.3811 36.5746 48.2947V40.9151C36.5746 40.8287 36.5427 40.7497 36.4898 40.6886C36.482 40.6796 36.4737 40.671 36.465 40.6629C36.4062 40.6074 36.328 40.5717 36.2414 40.5663C36.4278 40.5774 36.5755 40.7294 36.5755 40.9152V48.2948C36.5755 48.4878 36.4161 48.6443 36.2195 48.6443H34.7122C34.6685 48.6443 34.6331 48.6791 34.6331 48.722C34.6331 48.7631 34.6656 48.7967 34.7067 48.7995ZM46.741 40.4104C46.7392 40.4103 46.7374 40.4102 46.7355 40.4102H41.6304C41.5867 40.4102 41.5513 40.445 41.5513 40.4879C41.5513 40.5293 41.5842 40.5631 41.6258 40.5655C41.5847 40.5627 41.5522 40.529 41.5522 40.488C41.5522 40.4451 41.5876 40.4103 41.6313 40.4103H46.7364C46.7379 40.4103 46.7395 40.4103 46.741 40.4104ZM43.787 40.5663C43.8736 40.5716 43.9519 40.6074 44.0107 40.6629C44.0194 40.671 44.0277 40.6796 44.0355 40.6886C44.0884 40.7497 44.1203 40.8287 44.1203 40.9151V48.7381C44.1203 48.7712 44.1469 48.7981 44.1802 48.7996C44.1473 48.7977 44.1212 48.7709 44.1212 48.7381V40.9152C44.1212 40.7293 43.9735 40.5774 43.787 40.5663ZM53.5449 48.6444C53.5431 48.6443 53.5412 48.6443 53.5394 48.6443H52.0571C52.0505 48.6443 52.0438 48.6441 52.0372 48.6437C52.0441 48.6441 52.051 48.6443 52.058 48.6443H53.5403C53.5418 48.6443 53.5434 48.6444 53.5449 48.6444ZM49.7079 48.7995C49.6668 48.7967 49.6343 48.7631 49.6343 48.722C49.6343 48.6791 49.6697 48.6443 49.7134 48.6443H51.2207C51.4173 48.6443 51.5767 48.4878 51.5767 48.2948V40.9152C51.5767 40.7293 51.429 40.5773 51.2425 40.5663C51.3291 40.5716 51.4074 40.6074 51.4662 40.6629C51.4749 40.671 51.4832 40.6796 51.491 40.6886C51.5439 40.7497 51.5758 40.8287 51.5758 40.9151V48.2947C51.5758 48.3811 51.5439 48.4602 51.491 48.5212C51.4832 48.5302 51.4749 48.5388 51.4662 48.547C51.4023 48.6072 51.3155 48.6443 51.2198 48.6443H49.7125C49.6688 48.6443 49.6334 48.679 49.6334 48.7219C49.6334 48.7633 49.6664 48.7971 49.7079 48.7995ZM49.7079 40.5655C49.6668 40.5627 49.6343 40.529 49.6343 40.488C49.6343 40.4451 49.6697 40.4103 49.7134 40.4103H53.5403C53.5418 40.4103 53.5434 40.4103 53.5449 40.4104C53.5431 40.4103 53.5412 40.4102 53.5394 40.4102H49.7125C49.6688 40.4102 49.6334 40.445 49.6334 40.4879C49.6334 40.5293 49.6664 40.5631 49.7079 40.5655ZM27.959 47.6223L27.9582 47.6198L27.131 45.1338L27.1307 45.1328C27.0689 44.9412 27.022 44.7334 26.9904 44.5087C26.9587 44.2722 26.9426 44.0247 26.9426 43.766V40.4717C26.9426 40.2959 26.7981 40.1576 26.6252 40.1576C26.4523 40.1576 26.3078 40.2959 26.3078 40.4717V43.766C26.3078 44.0631 26.3207 44.3409 26.3467 44.599L26.3472 44.6038L26.3479 44.6087C26.3834 44.8617 26.4411 45.1094 26.521 45.3515L27.3483 47.8381C27.4529 48.1515 27.5736 48.4202 27.7131 48.6393C27.8906 48.918 28.1694 49.0522 28.505 49.0522H29.6078C29.9434 49.0522 30.2221 48.918 30.3996 48.6393C30.5391 48.4202 30.6599 48.1513 30.7645 47.8379L31.5916 45.3521L31.5918 45.3515C31.6722 45.1078 31.726 44.8585 31.753 44.6037C31.7878 44.3435 31.8049 44.0641 31.8049 43.766V40.4717C31.8049 40.2959 31.6604 40.1576 31.4875 40.1576C31.3146 40.1576 31.1701 40.2959 31.1701 40.4717V43.766C31.1701 44.0247 31.1541 44.2722 31.1223 44.5087C31.0908 44.7334 31.0438 44.9412 30.9821 45.1328L30.9817 45.1338L30.1545 47.6198L30.1538 47.6223C30.0743 47.8786 29.9851 48.0879 29.8884 48.2538L29.8872 48.2559C29.8396 48.3395 29.7661 48.3916 29.6078 48.3916H28.505C28.35 48.3916 28.2679 48.3411 28.2121 48.254C28.1229 48.0868 28.038 47.8772 27.959 47.6223ZM34.7113 49.0522H38.5382C38.7201 49.0522 38.872 48.9067 38.872 48.7219C38.872 48.5371 38.7201 48.3916 38.5382 48.3916H37.0559C36.9976 48.3916 36.9547 48.3459 36.9547 48.2947V40.9151C36.9547 40.864 36.9976 40.8182 37.0559 40.8182H38.5382C38.7201 40.8182 38.872 40.6727 38.872 40.4879C38.872 40.3031 38.7201 40.1576 38.5382 40.1576H34.7113C34.5293 40.1576 34.3775 40.3031 34.3775 40.4879C34.3775 40.6727 34.5293 40.8182 34.7113 40.8182H36.2186C36.2769 40.8182 36.3199 40.864 36.3199 40.9151V48.2947C36.3199 48.3459 36.2769 48.3916 36.2186 48.3916H34.7113C34.5293 48.3916 34.3775 48.5371 34.3775 48.7219C34.3775 48.9067 34.5293 49.0522 34.7113 49.0522ZM43.8656 40.9151V48.7381C43.8656 48.914 44.0101 49.0522 44.183 49.0522C44.3559 49.0522 44.5004 48.914 44.5004 48.7381V40.9151C44.5004 40.864 44.5433 40.8182 44.6016 40.8182H46.7355C46.9175 40.8182 47.0693 40.6727 47.0693 40.4879C47.0693 40.3031 46.9175 40.1576 46.7355 40.1576H41.6304C41.4484 40.1576 41.2966 40.3031 41.2966 40.4879C41.2966 40.6727 41.4484 40.8182 41.6304 40.8182H43.7643C43.8226 40.8182 43.8656 40.864 43.8656 40.9151ZM49.7125 49.0522H53.5394C53.7214 49.0522 53.8732 48.9067 53.8732 48.7219C53.8732 48.5371 53.7214 48.3916 53.5394 48.3916H52.0571C51.9988 48.3916 51.9559 48.3459 51.9559 48.2947V40.9151C51.9559 40.864 51.9988 40.8182 52.0571 40.8182H53.5394C53.7214 40.8182 53.8732 40.6727 53.8732 40.4879C53.8732 40.3031 53.7214 40.1576 53.5394 40.1576H49.7125C49.5306 40.1576 49.3787 40.3031 49.3787 40.4879C49.3787 40.6727 49.5306 40.8182 49.7125 40.8182H51.2198C51.2782 40.8182 51.3211 40.864 51.3211 40.9151V48.2947C51.3211 48.3459 51.2782 48.3916 51.2198 48.3916H49.7125C49.5306 48.3916 49.3787 48.5371 49.3787 48.7219C49.3787 48.9067 49.5306 49.0522 49.7125 49.0522Z" fill="#FF6D08"/>
</g>
<defs>
<clipPath id="clip0_217_1174">
<rect x="19.4336" y="6.15381" width="41.1336" height="63.1579" fill="white"/>
</clipPath>
</defs>
</svg>
